# xmcd
#
# Track frame offsets:
#      150
#      13660
#      26147
# 
# Disc length: 516 seconds
#
# Revision: 2
# Processed by: cddbd v1.4PL0 Copyright (c) Steve Scherf et al.
#
# Submitted via: FreeRIP 1.20
#
DISCID=1c020203
DTITLE=The Pogues - Sayonara
DYEAR=1991
DGENRE=Folk/Rock
TTITLE0=Sayonara
TTITLE1=Curse of Love
TTITLE2=Infinity
EXTD=
EXTT0=
EXTT1=
EXTT2=
PLAYORDER=
